<svg xmlns="http://www.w3.org/2000/svg" viewBox="0 0 64 64">
  <defs>
    <linearGradient id="bg" x1="0" y1="0" x2="1" y2="1">
      <stop offset="0%" stop-color="#FBDCE7"/>
      <stop offset="100%" stop-color="#DCECF7"/>
    </linearGradient>
  </defs>
  <rect width="64" height="64" rx="16" fill="url(#bg)"/>
  <!-- bonnet -->
  <path d="M16 33 a16 16 0 0 1 32 0 q-16 -9 -32 0 z" fill="#F3A9C2"/>
  <circle cx="32" cy="18.5" r="3.6" fill="#FBE3A0"/>
  <!-- face -->
  <circle cx="32" cy="36" r="18" fill="#6B4A36"/>
  <path d="M16 31 a16 16 0 0 1 32 0 q-16 -7.5 -32 0 z" fill="#F3A9C2"/>
  <!-- cheeks -->
  <circle cx="22.5" cy="40" r="3.2" fill="#E486A6" opacity="0.6"/>
  <circle cx="41.5" cy="40" r="3.2" fill="#E486A6" opacity="0.6"/>
  <!-- eyes -->
  <circle cx="26" cy="35" r="2.3" fill="#2b1c12"/>
  <circle cx="38" cy="35" r="2.3" fill="#2b1c12"/>
  <circle cx="26.7" cy="34.2" r="0.8" fill="#fff"/>
  <circle cx="38.7" cy="34.2" r="0.8" fill="#fff"/>
  <!-- smile -->
  <path d="M27 42 q5 5 10 0" fill="none" stroke="#2b1c12" stroke-width="2" stroke-linecap="round"/>
</svg>
